<?xml version="1.0" encoding="utf-8"?>
<!-- Generator: Adobe Illustrator 24.2.1, SVG Export Plug-In . SVG Version: 6.00 Build 0)  -->
<svg version="1.1" id="Layer_1" xmlns="http://www.w3.org/2000/svg" xmlns:xlink="http://www.w3.org/1999/xlink" x="0px" y="0px"
	 viewBox="0 0 74 88" style="enable-background:new 0 0 74 88;" xml:space="preserve">
<style type="text/css">
	.st0{fill:none;stroke:#F1F2F2;stroke-width:2.9101;stroke-linecap:round;stroke-linejoin:round;stroke-miterlimit:10;}
</style>
<path class="st0" d="M9.52,51.37c0,0-3.14-4.74-5.93-3.42c-2.79,1.32-0.2,10.21,1.74,12.8c1.94,2.59,4.99,1.69,4.99,1.69"/>
<path class="st0" d="M64.48,51.37c0,0,3.14-4.74,5.93-3.42c2.79,1.32,0.2,10.21-1.74,12.8c-1.94,2.59-5.02,1.57-5.02,1.57"/>
<path class="st0" d="M63.94,32.62c0,0,1.31,33.55-2.33,40.58c-3.64,7.03-16.83,12.69-23.14,12.93c-6.31,0.24-18.1-3.48-24.41-10.75
	c-6.31-7.28-4.2-42.76-4.2-42.76s3.76-2.18,4.97-5.09c1.21-2.91,2.06-5.25,2.06-5.25s7.12,2.5,17.46,2.75
	c13.34,0.32,21.34-2.8,21.34-2.8S57.27,30.92,63.94,32.62z"/>
<path class="st0" d="M3.6,47.95c0,0-1.58-16.62,0-24.87c1.58-8.25,7.32-11.56,7.32-11.56S14.87,4,25.38,2.39
	c10.51-1.62,26.84,0.65,33.63,4.69c6.79,4.04,6.47,8.89,6.47,8.89s4.04,3.49,5.01,8.94c0.97,5.45-0.08,23.05-0.08,23.05"/>
<line class="st0" x1="9.52" y1="51.37" x2="15.36" y2="56.38"/>
<line class="st0" x1="64.22" y1="51.37" x2="58.39" y2="56.38"/>
<path class="st0" d="M59.68,75.38L59.68,75.38c-2.16-4.55-2.87-9.65-2.03-14.61l0.74-4.38l-4.36,0.19
	c-4.58,0.2-9.15-0.63-13.38-2.41l0,0c-2.4-1.01-5.1-1.01-7.51-0.01l-0.07,0.03c-4.21,1.77-8.77,2.58-13.33,2.38l-4.39-0.19
	l0.74,4.38c0.84,4.96,0.13,10.07-2.03,14.61l0,0"/>
<path class="st0" d="M52.89,64.39l-5.04-0.74c-7.26-1.07-14.64-1.07-21.9,0l-5.09,0.75"/>
<path class="st0" d="M20.85,76l5.09,0.75c7.26,1.06,14.64,1.06,21.9,0L52.89,76"/>
<line class="st0" x1="20.85" y1="69.8" x2="52.89" y2="69.8"/>
</svg>
