<?xml version="1.0" encoding="utf-8"?>
<!-- Generator: Adobe Illustrator 24.2.1, SVG Export Plug-In . SVG Version: 6.00 Build 0)  -->
<svg version="1.1" id="Layer_1" xmlns="http://www.w3.org/2000/svg" xmlns:xlink="http://www.w3.org/1999/xlink" x="0px" y="0px"
	 viewBox="0 0 106 54" style="enable-background:new 0 0 106 54;" xml:space="preserve">
<style type="text/css">
	.st0{fill:none;stroke:#FFFFFF;stroke-width:3.8801;stroke-miterlimit:10;}
</style>
<g>
	<path class="st0" d="M85.18,38.97L85.18,38.97c-3.04-6.42-4.04-13.61-2.86-20.62l1.04-6.18l-6.15,0.26
		c-6.47,0.28-12.91-0.88-18.88-3.39l0,0c-3.38-1.43-7.2-1.43-10.59-0.01l-0.1,0.04c-5.94,2.49-12.37,3.64-18.81,3.36l-6.19-0.27
		l1.04,6.18c1.18,7,0.18,14.2-2.86,20.62l0,0"/>
	<path class="st0" d="M75.6,23.47l-7.11-1.04c-10.24-1.5-20.65-1.51-30.89-0.01l-7.18,1.05"/>
	<path class="st0" d="M30.4,39.84l7.18,1.05c10.24,1.5,20.65,1.5,30.89-0.01l7.11-1.04"/>
	<line class="st0" x1="30.4" y1="31.11" x2="75.6" y2="31.11"/>
	<path class="st0" d="M22.65,12.18c0,0-13.01-15.45-18.94-7.92c-7.63,9.69,17.12,34.71,17.12,34.71S29.31,51.81,53,51.81
		s32.18-12.84,32.18-12.84"/>
	<path class="st0" d="M83.35,12.18c0,0,13.01-15.45,18.94-7.92c7.63,9.69-17.12,34.71-17.12,34.71"/>
</g>
</svg>
